<svg id="Layer_1" version="1.1" viewBox="0 0 878.20001 121.22" sodipodi:docname="EASports_Wordmark_Black.svg" width="878.20001" height="121.22" inkscape:version="1.4.2 (ebf0e940d0, 2025-05-08)" xmlns:inkscape="http://www.inkscape.org/namespaces/inkscape" xmlns:sodipodi="http://sodipodi.sourceforge.net/DTD/sodipodi-0.dtd" xmlns="http://www.w3.org/2000/svg" xmlns:svg="http://www.w3.org/2000/svg" xmlns:i="http://ns.adobe.com/AdobeIllustrator/10.0/"><defs id="defs6" /><sodipodi:namedview id="namedview6" pagecolor="#ffffff" bordercolor="#000000" borderopacity="0.25" inkscape:showpageshadow="2" inkscape:pageopacity="0.0" inkscape:pagecheckerboard="0" inkscape:deskcolor="#d1d1d1" inkscape:zoom="0.88888889" inkscape:cx="438.75" inkscape:cy="60.75" inkscape:window-width="1920" inkscape:window-height="1011" inkscape:window-x="0" inkscape:window-y="0" inkscape:window-maximized="1" inkscape:current-layer="Layer_1" /><path id="EA" d="m 53.51,0.83 h 98.67 L 137.06,24.77 38.41,24.83 53.51,0.84 Z M 124.96,120.8 H 96.09 v 0.03 H 0 L 30.39,72.81 H 8.08 l 15.18,-24 h 92.94 l -15.2,24 H 59.33 l -15.4,24.02 h 67.1 L 172.36,0 248.7,120.8 H 219.89 L 204.72,96.82 h -45.13 l 15.18,-24.05 h 14.79 l -17.2,-27.27 -47.41,75.29 z" /><polygon points="869.05,406.34 866.77,406.34 866.77,396.73 862.26,396.73 862.26,394.74 873.56,394.74 873.56,396.73 869.05,396.73 " id="polygon1" transform="translate(-10.9,-389.39)" /><path d="m 878.2,16.95 h -2.1 V 9.79 c 0,-0.3 0,-0.68 0.08,-1.26 -0.21,0.46 -0.26,0.86 -0.56,1.26 l -3.69,5.69 h -0.37 L 867.79,9.7 c -0.21,-0.32 -0.45,-0.77 -0.69,-1.17 0,0.46 0.24,0.85 0.24,1.26 v 7.16 h -1.96 V 5.36 h 1.96 l 4.51,7 4.59,-7 h 1.75 v 11.59 z" id="path1" /><g id="g6" transform="translate(-10.9,-389.39)"><path d="m 358.5,485.08 c 0,7.1 -2.47,13.13 -7.35,18.04 -4.96,4.99 -11.01,7.49 -17.99,7.49 h -30.09 c -7.11,0 -13.11,-2.4 -17.88,-7.16 -4.8,-4.78 -7.16,-10.68 -7.16,-17.93 v -11.9 h 18.49 l 2.71,11.02 c 1.22,4.54 4.35,6.88 9.47,6.88 h 20.35 c 2.55,0 4.59,-0.91 6.21,-2.83 1.51,-1.82 2.28,-4.24 2.28,-7 v -13.1 c 0,-6.42 -2.84,-9.7 -8.49,-9.7 H 303.5 c -6.98,0 -13.05,-2.44 -18.1,-7.43 -4.88,-5 -7.37,-11.01 -7.37,-18.07 v -17.3 c 0,-6.94 2.49,-12.89 7.37,-17.84 5.04,-4.99 11.12,-7.45 18.1,-7.45 h 29.66 c 6.98,0 12.92,2.39 17.8,7.14 4.86,4.79 7.22,10.68 7.22,17.85 v 10.76 h -18.36 l -2.79,-9.75 c -1.43,-4.64 -4.67,-6.92 -9.37,-6.92 H 307.6 c -2.6,0 -4.67,0.93 -6.21,2.81 -1.65,1.88 -2.36,4.22 -2.36,7.1 v 10.08 c 0,6.29 2.84,9.43 8.57,9.43 h 25.55 c 6.9,0 12.89,2.52 17.88,7.57 4.99,5.05 7.46,11 7.46,17.94 v 20.27 z" id="path2" /><path d="m 433.34,410.14 h -28.87 v 37.17 h 28.87 c 2.47,0 4.54,-0.94 6.1,-2.77 1.59,-1.9 2.41,-4.19 2.41,-7.08 v -17.48 c 0,-2.92 -0.82,-5.2 -2.41,-7.06 -1.57,-1.87 -3.64,-2.77 -6.1,-2.77 z m 29.72,31.07 c 0,7.04 -2.49,13.03 -7.43,17.97 -5.07,4.95 -11.14,7.45 -18.15,7.45 h -33 V 510.6 H 383.31 V 390.79 h 54.18 c 7.01,0 13.08,2.47 18.15,7.45 4.94,4.9 7.43,10.88 7.43,17.77 v 25.18 z" id="path3" /><path d="m 639.31,410.14 h -27.73 v 34.28 h 27.73 c 2.44,0 4.48,-0.9 6,-2.65 1.54,-1.84 2.28,-4.18 2.28,-7.03 v -14.76 c 0,-2.85 -0.74,-5.2 -2.28,-7.06 -1.51,-1.87 -3.56,-2.77 -6,-2.77 z m 11.88,100.47 -19.53,-46.89 h -20.08 v 46.89 h -21.2 V 390.8 h 52.96 c 7.11,0 13.11,2.47 18.04,7.45 4.93,4.9 7.46,10.9 7.46,17.77 v 20.89 c 0,5.43 -1.51,10.39 -4.48,14.75 -3.13,4.32 -7.06,7.4 -11.67,9.43 l 21.01,49.5 h -22.5 z" id="path4" /><polygon points="733.84,510.61 712.64,510.61 712.64,410.14 682.18,410.14 682.18,390.81 764.59,390.81 764.59,410.14 733.84,410.14 " id="polygon4" /><path d="m 860.61,485.08 c 0,7.1 -2.47,13.13 -7.4,18.04 -4.99,4.99 -11.01,7.49 -18.12,7.49 h -29.98 c -7.14,0 -13.05,-2.4 -17.91,-7.16 -4.78,-4.78 -7.19,-10.68 -7.19,-17.93 v -11.9 h 18.44 l 2.79,11.02 c 1.3,4.54 4.38,6.88 9.47,6.88 h 20.32 c 2.57,0 4.67,-0.91 6.24,-2.83 1.51,-1.82 2.28,-4.24 2.28,-7 v -13.1 c 0,-6.42 -2.81,-9.7 -8.52,-9.7 h -25.52 c -7.06,0 -13.11,-2.44 -18.01,-7.43 -4.91,-5 -7.48,-11.01 -7.48,-18.07 v -17.3 c 0,-6.94 2.57,-12.89 7.48,-17.84 4.91,-4.99 10.96,-7.45 18.01,-7.45 h 29.58 c 7.11,0 13,2.39 17.88,7.14 4.8,4.79 7.27,10.68 7.27,17.85 v 10.76 h -18.41 l -2.79,-9.75 c -1.49,-4.64 -4.62,-6.92 -9.34,-6.92 h -20.11 c -2.55,0 -4.7,0.93 -6.21,2.81 -1.54,1.88 -2.34,4.22 -2.34,7.1 v 10.08 c 0,6.29 2.89,9.43 8.54,9.43 h 25.5 c 7,0 12.97,2.52 17.91,7.57 5.15,5.05 7.62,11 7.62,17.94 z" id="path5" /><path d="m 564.57,484.89 c 0,7.28 -2.41,13.32 -7.51,18.23 -5.02,4.99 -10.93,7.49 -18.04,7.49 h -28.63 c -7.14,0 -13.16,-2.51 -18.15,-7.49 -4.96,-4.91 -7.48,-10.94 -7.48,-18.23 v -68.86 c 0,-6.87 2.52,-12.88 7.48,-17.77 4.99,-4.99 11.01,-7.45 18.15,-7.45 h 28.63 c 7.11,0 13.03,2.47 18.04,7.38 5.09,4.83 7.51,10.9 7.51,17.85 v 68.86 z m -29.66,-74.75 h -20.3 c -2.65,0 -4.7,0.9 -6.29,2.77 -1.51,1.86 -2.25,4.21 -2.25,7.06 v 61.42 c 0,2.78 0.74,5.11 2.25,6.98 1.59,1.94 3.64,2.93 6.29,2.93 h 20.3 c 2.44,0 4.51,-0.99 6.08,-2.93 1.65,-1.87 2.44,-4.19 2.44,-6.98 v -61.42 c 0,-2.85 -0.8,-5.2 -2.44,-7.06 -1.56,-1.87 -3.64,-2.77 -6.08,-2.77 z" id="path6" /></g></svg>