<svg version="1.1" id="Layer_1" xmlns="http://www.w3.org/2000/svg" xmlns:xlink="http://www.w3.org/1999/xlink" x="0px" y="0px" viewBox="0 0 2633.8 500" enable-background="new 0 0 2633.8 500" xml:space="preserve"><g><path fill="#F9F910" d="M2533.7,156.6c-22.7,0-35.3,15-38.2,35.2c-0.4,2.8-2.6,4.9-5.4,4.9h-45.9c-6.2,0-10.9-5.7-9.7-11.8 c9.7-47.7,45.9-82,98.7-82c60.9,0,97.1,34,97.1,86.3c0,36.3-27.8,64.6-57.5,95.8l-55.7,59.9h116.5v52.4h-200.5V377 c0-12.2,4.7-23.9,13.1-32.8l78.9-82.9c25.4-27.8,45.3-48.1,45.3-69.8C2570.5,171.2,2556.4,156.6,2533.7,156.6"/><path fill="#F9F910" d="M1175.5,170.8v86.3h189.1c24.6,0,44.2-19.5,44.2-43.2c0-23.8-19.6-43.2-44.2-43.2H1175.5z M1175.5,322.2 v71.6h-71.1V106.3h265.2c61.2,0,110.7,48.2,110.7,107.7c0,38.4-20.7,72.2-51.7,90.9l51.7,88.9h-78l-42.2-71.6H1175.5"/><path fill="#F9F910" d="M2022,170.8v86.3h182.1c24.5,0,44.1-19.5,44.1-43.1c0-23.8-19.6-43.2-44.1-43.2H2022z M2022,321.7v72.1 h-71.1V106.3h258.2c61.2,0,110.7,48.2,110.7,107.7c0,59.5-49.5,107.7-110.7,107.7H2022"/><polygon fill="#F9F910" points="1533,170.8 1533,106.3 1890.5,106.3 1890.5,170.8 1747.9,170.8 1747.9,393.7 1675.8,393.7 1675.8,170.8 "/><path fill="#F9F910" d="M849.9,428.5H143c-20.2,0-36.6,16.1-36.6,35.8c0,19.7,16.4,35.6,36.6,35.6h706.9 c20.4,0,36.6-15.9,36.6-35.6C886.5,444.6,870.3,428.5,849.9,428.5"/><path fill="#F9F910" d="M143,71.5h706.9c20.4,0,36.6-15.9,36.6-35.7C886.5,16,870.3,0,849.9,0H143c-20.2,0-36.6,16-36.6,35.8 C106.4,55.6,122.8,71.5,143,71.5"/><path fill="#F9F910" d="M36.7,178.7h919.7c20.3,0,36.8-16.1,36.8-35.9c0-19.6-16.5-35.6-36.8-35.6H36.7c-20.3,0-36.7,16-36.7,35.6 C0,162.6,16.4,178.7,36.7,178.7"/><path fill="#F9F910" d="M956.4,214.8H36.7c-20.3,0-36.7,16-36.7,35.9c0,19.6,16.4,35.7,36.7,35.7h919.7c20.3,0,36.8-16.1,36.8-35.7 C993.2,230.7,976.7,214.8,956.4,214.8"/><path fill="#F9F910" d="M956.4,321.6H36.7C16.4,321.6,0,337.5,0,357.3C0,377,16.4,393,36.7,393h919.7c20.3,0,36.8-16,36.8-35.7 C993.2,337.5,976.7,321.6,956.4,321.6"/></g></svg>